HIERARCHY
ROOT hip
{
	OFFSET 0.000000 0.000000 0.000000 
	CHANNELS 6 Xposition Yposition Zposition Xrotation Zrotation Yrotation
	JOINT abdomen
	{
		OFFSET 0.000000 3.402643 0.000000 
		CHANNELS 3 Xrotation Zrotation Yrotation
		JOINT chest
		{
			OFFSET 0.000000 8.438565 -0.680529 
			CHANNELS 3 Xrotation Zrotation Yrotation
			JOINT neck
			{
				OFFSET 0.000000 10.207942 -0.272212 
				CHANNELS 3 Xrotation Zrotation Yrotation
				JOINT head
				{
					OFFSET 0.000000 3.130431 0.000000 
					CHANNELS 3 Xrotation Zrotation Yrotation
					End Site
					{
						OFFSET 0.000000 3.130435 0.000000 
					}
				}
			}
			JOINT lCollar
			{
				OFFSET 3.470700 6.669187 -0.816635 
				CHANNELS 3 Yrotation Zrotation Xrotation
				JOINT lShldr
				{
					OFFSET 3.198488 0.000000 0.000000 
					CHANNELS 3 Zrotation Yrotation Xrotation
					JOINT lForeArm
					{
						OFFSET 10.139888 0.000000 0.000000 
						CHANNELS 3 Yrotation Zrotation Xrotation
						JOINT lHand
						{
							OFFSET 8.370511 0.000000 0.000000 
							CHANNELS 3 Zrotation Yrotation Xrotation
							End Site
							{
								OFFSET 4.083176 0.000000 0.000000 
							}
						}
					}
				}
			}
			JOINT rCollar
			{
				OFFSET -3.470700 6.669187 -0.816635 
				CHANNELS 3 Yrotation Zrotation Xrotation
				JOINT rShldr
				{
					OFFSET -3.198488 0.000000 0.000000 
					CHANNELS 3 Zrotation Yrotation Xrotation
					JOINT rForeArm
					{
						OFFSET -10.139888 0.000000 0.000000 
						CHANNELS 3 Yrotation Zrotation Xrotation
						JOINT rHand
						{
							OFFSET -8.370511 0.000000 0.000000 
							CHANNELS 3 Zrotation Yrotation Xrotation
							End Site
							{
								OFFSET -4.083176 0.000000 0.000000 
							}
						}
					}
				}
			}
		}
	}
	JOINT lThigh
	{
		OFFSET 5.308129 -1.633274 1.361059 
		CHANNELS 3 Xrotation Zrotation Yrotation
		JOINT lShin
		{
			OFFSET -2.041588 -20.007561 0.000000 
			CHANNELS 3 Xrotation Zrotation Yrotation
			JOINT lFoot
			{
				OFFSET 0.000000 -19.190928 -1.224953 
				CHANNELS 3 Xrotation Yrotation Zrotation
				End Site
				{
					OFFSET 0.000000 -2.449906 4.627600 
				}
			}
		}
	}
	JOINT rThigh
	{
		OFFSET -5.308129 -1.633274 1.361059 
		CHANNELS 3 Xrotation Zrotation Yrotation
		JOINT rShin
		{
			OFFSET 2.041588 -20.007561 0.000000 
			CHANNELS 3 Xrotation Zrotation Yrotation
			JOINT rFoot
			{
				OFFSET 0.000000 -19.190928 -1.224953 
				CHANNELS 3 Xrotation Yrotation Zrotation
				End Site
				{
					OFFSET 0.000000 -2.449906 4.627600 
				}
			}
		}
	}
}
MOTION
Frames: 16
Frame Time: 0.016667
0.323940 47.860107 -0.987089 3.708092 3.498538 2.043175 -19.151463 -1.891237 1.310916 27.343916 -0.190838 0.164956 -4.436265 7.857543 -3.029186 4.674621 8.010721 -0.899432 1.993405 -2.003458 -0.008156 -89.105606 3.213834 -4.244742 -59.428150 -0.578499 -1.382281 -0.055835 -0.006802 45.849609 -2.003062 1.991579 -0.506922 92.052605 -4.694761 -7.614234 59.247692 0.133352 -0.625193 0.072772 -0.063669 21.347662 -16.289808 0.555547 0.520685 34.434593 2.581605 2.508225 -25.489534 14.356211 8.056504 -16.554539 -6.569957 4.929035 39.635612 -2.711220 -2.781652 -27.461744 -17.593109 -10.106250 
0.324328 47.856728 -0.975359 3.679569 3.703309 2.064295 -19.191410 -1.964572 1.357401 27.275570 -0.199636 0.170472 -4.357609 7.877840 -3.029740 4.684482 8.010611 -0.898071 1.993405 -2.003458 -0.008156 -89.042511 3.153905 -4.596309 -60.160889 -0.582579 -1.388313 -0.051993 0.007197 42.529301 -2.003062 1.991579 -0.506922 92.048264 -4.722281 -7.751289 59.208637 0.133779 -0.625102 0.072468 -0.063550 21.621099 -16.249651 0.331296 0.506650 34.493439 2.585770 2.518139 -25.542479 14.129839 7.936005 -16.680542 -6.813704 4.840727 39.975052 -2.750267 -2.770070 -27.687204 -17.347420 -9.994595 
0.323164 47.852478 -0.964494 3.680022 3.810510 2.100475 -19.270021 -2.000512 1.353430 27.158350 -0.182468 0.170033 -4.336979 7.790404 -2.971652 4.664203 7.962167 -0.894962 1.993405 -2.003458 -0.008156 -89.096764 3.141999 -5.065957 -60.825375 -0.593019 -1.402501 -0.055953 0.015085 39.433594 -2.003062 1.991579 -0.506922 92.014786 -4.906132 -7.753762 59.247692 0.133352 -0.625193 0.072371 -0.063511 21.708992 -16.270731 0.204325 0.527888 34.493069 2.591398 2.519807 -25.261988 14.430855 8.008039 -16.609261 -6.942726 4.862037 39.906178 -2.750271 -2.761481 -27.612278 -17.470015 -10.028764 
0.317772 47.854855 -0.975974 3.757488 3.615279 2.112417 -19.289227 -1.972622 1.363972 27.148876 -0.312830 0.161796 -4.395198 7.702165 -2.904562 4.623886 7.884736 -0.857790 1.993405 -2.003458 -0.008156 -89.074615 2.856870 -5.710128 -61.841564 -0.603105 -1.416181 -0.051625 0.024047 34.833988 -2.003062 1.991579 -0.506922 92.070915 -4.857186 -7.802403 59.257458 0.133246 -0.625216 0.072295 -0.063481 21.777351 -16.382643 0.438788 0.516936 34.533115 2.595678 2.549532 -25.490469 14.211428 7.993801 -16.691198 -6.628652 5.058866 39.918190 -2.724543 -2.771807 -27.751381 -17.530300 -10.134873 
0.326056 47.853855 -0.949774 3.699722 3.839662 2.181785 -19.230825 -1.991768 1.339086 27.226709 -0.182356 0.160050 -4.294898 7.527874 -2.906436 4.682047 7.796484 -0.856867 1.993405 -2.003458 -0.008156 -89.197159 2.905407 -5.719877 -61.880611 -0.602140 -1.416592 -0.051580 0.024016 34.941410 -2.003062 1.991579 -0.506922 91.889793 -4.742291 -7.692899 59.237930 0.133459 -0.625171 0.072371 -0.063511 21.708992 -16.278059 0.175568 0.569602 34.503609 2.585875 2.527716 -25.402308 14.265042 7.957516 -16.599504 -6.971796 4.884248 39.955872 -2.750275 -2.780102 -27.848217 -17.362251 -10.061154 
0.333643 47.857979 -0.935825 3.758191 3.780938 2.260000 -19.230713 -1.982547 1.277278 27.285368 -0.216976 0.122419 -4.361150 7.254550 -2.894798 4.631162 7.651018 -0.875230 1.993405 -2.003458 -0.008156 -89.121796 2.973829 -5.642352 -61.968483 -0.599966 -1.417515 -0.051633 0.024053 34.814457 -2.003062 1.991579 -0.506922 91.946648 -4.820045 -7.664528 59.316135 0.141004 -0.620369 0.072241 -0.063459 21.826180 -16.300369 0.223683 0.518692 34.482895 2.591388 2.510258 -25.513882 14.283450 7.999516 -16.556261 -6.990076 4.632678 39.848804 -2.740474 -2.778472 -27.739265 -17.270721 -9.996935 
0.327982 47.847477 -0.941372 3.787131 3.683367 2.235961 -19.318764 -1.990700 1.303077 27.148853 -0.304140 0.136957 -4.388436 7.020580 -2.890483 4.600247 7.524789 -0.879478 1.993405 -2.003458 -0.008156 -88.937248 3.091471 -5.447313 -61.997772 -0.599241 -1.417821 -0.051650 0.024064 34.775394 -2.003062 1.991579 -0.506922 92.053848 -4.906132 -7.753762 59.286751 0.132926 -0.625284 0.072068 -0.063390 21.982430 -16.376291 0.331552 0.515411 34.502975 2.595518 2.530568 -25.374813 14.309846 7.982192 -16.674406 -6.804982 4.849460 39.945698 -2.750271 -2.770552 -27.900648 -17.323929 -10.081815 
0.328305 47.853481 -0.935216 3.855802 3.722049 2.242974 -19.358414 -2.036292 1.330373 27.090528 -0.391241 0.131845 -4.190523 6.895757 -2.964823 4.678209 7.446094 -0.934172 1.993405 -2.003458 -0.008156 -88.802711 3.159929 -5.369301 -62.085854 -0.605692 -1.414165 -0.051568 0.024007 34.970707 -2.003062 1.991579 -0.506922 92.104507 -4.848074 -7.752927 59.198868 0.133885 -0.625080 0.072046 -0.063381 22.001961 -16.433943 0.302451 0.541214 34.435097 2.585895 2.528914 -25.343533 14.300760 7.982584 -16.693323 -6.892579 4.759144 39.858746 -2.730811 -2.765249 -27.753382 -17.319498 -10.032837 
0.328095 47.856354 -0.926247 3.915685 3.975104 2.234782 -19.221619 -2.037992 1.247388 27.285368 -0.216976 0.102888 -4.085340 7.237617 -2.927242 4.808621 7.658818 -0.870549 1.993405 -2.003458 -0.008156 -88.936745 2.809819 -5.387296 -61.939194 -0.600691 -1.417207 -0.051687 0.024090 34.687504 -2.003062 1.991579 -0.506922 91.860191 -4.415150 -7.503250 58.993797 0.136122 -0.624596 0.072079 -0.063394 21.972666 -16.371836 0.028543 0.656101 34.307354 2.581626 2.510450 -25.283865 14.282114 7.971482 -16.894846 -7.194252 4.636908 40.063095 -2.750413 -2.768672 -27.710970 -17.282036 -9.987022 
0.333453 47.854855 -0.925322 3.935356 3.994497 2.149582 -19.348301 -2.008771 1.251967 27.041208 -0.208753 0.118021 -3.958061 7.316681 -2.867764 4.848701 7.716762 -0.850665 1.993405 -2.003458 -0.008156 -88.964958 3.160281 -5.301048 -62.105381 -0.605210 -1.414372 -0.051765 0.024144 34.501961 -2.003062 1.991579 -0.506922 91.753548 -4.667299 -7.466652 59.042629 0.135589 -0.624712 0.071863 -0.063306 22.167976 -16.339230 -0.010577 0.569384 34.238056 2.581614 2.491769 -25.424267 14.332363 8.028419 -16.901306 -7.225663 4.726900 40.085442 -2.714692 -2.775326 -27.840412 -17.014933 -9.929899 
0.334784 47.853481 -0.919447 3.974799 4.052761 2.059389 -19.387270 -1.999078 1.406347 26.973045 -0.295914 0.171618 -3.703059 7.435790 -2.930816 4.977729 7.793127 -0.865962 1.993405 -2.003458 -0.008156 -88.824524 3.161501 -5.056204 -62.017300 -0.598758 -1.418025 -0.051773 0.024149 34.482426 -2.003062 1.991579 -0.506922 91.694550 -4.646364 -7.613435 58.993797 0.136122 -0.624596 0.071992 -0.063359 22.050789 -16.298162 -0.078458 0.600966 34.169624 2.586173 2.504163 -25.300066 14.430611 8.048891 -16.999926 -7.343129 4.618937 40.140820 -2.760064 -2.770765 -27.800882 -16.906542 -9.822761 
0.323218 47.862984 -0.939640 4.072309 3.974348 1.963086 -19.474207 -1.915135 1.370365 26.806885 -0.235336 0.183784 -4.264489 7.440513 -2.857065 4.682705 7.854883 -0.842358 1.993405 -2.003458 -0.008156 -88.995865 3.063853 -5.134220 -61.782982 -0.604553 -1.415564 -0.051703 0.024101 34.648441 -2.003062 1.991579 -0.506922 91.412773 -4.434614 -7.493516 58.720379 0.139101 -0.623940 0.072198 -0.063442 21.865242 -16.439390 -0.000611 0.536942 34.121746 2.576026 2.512055 -25.332874 14.469903 8.082389 -17.187254 -7.226420 4.625682 40.133461 -2.730790 -2.780129 -27.696280 -16.997929 -9.855272 
0.311649 47.882862 -0.950686 4.170498 4.032299 1.856927 -19.553375 -1.997032 1.490260 26.661060 -0.453823 0.221289 -4.625447 7.105926 -2.818728 4.473415 7.642938 -0.847964 1.993405 -2.003458 -0.008156 -88.735924 3.103599 -4.958168 -61.694809 -0.593499 -1.410669 -0.051719 0.024113 34.609383 -2.003062 1.991579 -0.506922 91.494377 -4.279120 -7.551177 58.466370 0.128434 -0.620101 0.071949 -0.063341 22.089849 -16.496460 -0.010067 0.561291 34.102173 2.576030 2.512399 -25.399837 14.386238 8.070332 -17.349634 -7.254633 4.675746 40.064198 -2.730789 -2.761843 -27.613508 -16.853987 -9.793109 
0.300486 47.876736 -0.953949 4.170599 4.051778 1.750925 -19.593037 -2.042549 1.507983 26.485733 -0.559408 0.209469 -4.358101 6.933217 -2.704496 4.609993 7.514952 -0.791088 1.993405 -2.003458 -0.008156 -88.572327 3.181805 -4.880151 -61.577652 -0.596382 -1.409452 -0.051781 0.024155 34.462898 -2.003062 1.991579 -0.506922 91.522141 -4.260903 -7.432866 58.388256 0.129279 -0.619925 0.071766 -0.063267 22.255867 -16.483267 -0.019801 0.609724 34.071751 2.586051 2.505833 -25.364231 14.684445 8.207861 -17.395407 -7.312432 4.632113 40.145306 -2.714689 -2.803473 -27.515875 -16.691936 -9.636738 
0.291086 47.886742 -0.965147 4.189631 3.944543 1.597974 -19.552153 -1.895805 1.268786 26.455559 -0.332234 0.147124 -3.916408 7.053968 -2.278517 4.857331 7.609614 -0.555645 1.993405 -2.003458 -0.008156 -88.871460 3.034205 -5.231738 -61.264931 -0.590805 -1.402312 -0.051724 0.024115 34.599613 -2.003062 1.991579 -0.506922 90.947289 -3.714363 -6.753162 57.772949 0.122460 -0.615448 0.071992 -0.063359 22.050789 -16.507364 0.057933 0.400979 34.021671 2.591515 2.488842 -25.594975 14.806624 8.340826 -17.512978 -7.175738 4.510415 40.105583 -2.711324 -2.783537 -27.090513 -17.014744 -9.670831 
0.280392 47.902992 -0.968948 4.287618 3.963522 1.244823 -19.668650 -1.830053 1.396151 26.231050 -0.367919 0.219047 -4.011518 6.663469 -2.486840 4.786751 7.464405 -0.684258 1.993405 -2.003458 -0.008156 -88.694115 2.977252 -4.928402 -60.913246 -0.590867 -1.403409 -0.051864 0.024211 34.267586 -2.003062 1.991579 -0.506922 90.786087 -3.705110 -6.694060 57.636230 0.123928 -0.615154 0.072187 -0.063437 21.875008 -16.506016 0.048128 0.421128 33.943359 2.591524 2.490200 -25.802641 14.788331 8.413408 -17.800919 -7.157474 4.582930 40.127403 -2.691775 -2.805762 -26.759691 -17.150969 -9.603604 
